# xmcd CD database file
#
# Track frame offsets:
#	150
#	13885
#	26442
#	38520
#	57845
#	74010
#	91885
#	107340
#	124554
#	144355
#	161487
#	175047
#	198237
#	211015
#	222987
#	239472
#
# Disc length: 3458 seconds
#
# Revision: 3
# Processed by: cddbd v1.5.2PL0 Copyright (c) Steve Scherf et al.
# Submitted via: CDex 1.70beta2
#
DISCID=d00d8010
DTITLE=Laura Nyro - Eli and the Thirteenth Confession
DYEAR=1968
DGENRE=Pop
TTITLE0=Luckie
TTITLE1=Lu
TTITLE2=Sweet Blindness
TTITLE3=Poverty Train
TTITLE4=Lonely Women
TTITLE5=Eli's Comin'
TTITLE6=Timer
TTITLE7=Stoned Soul Picnic
TTITLE8=Emmie
TTITLE9=Woman's Blues
TTITLE10=Once It Was Alright Now (Farmer Joe)
TTITLE11=December's Boudoir
TTITLE12=The Confession
TTITLE13=Lu [demo]
TTITLE14=Stoned Soul Picnic [demo]
TTITLE15=Emmie [demo]
EXTD=YEAR: 1968
EXTT0=
EXTT1=
EXTT2=
EXTT3=
EXTT4=
EXTT5=
EXTT6=
EXTT7=
EXTT8=
EXTT9=
EXTT10=
EXTT11=
EXTT12=
EXTT13=
EXTT14=
EXTT15=
PLAYORDER=
